<?xml version="1.0" standalone="no"?>
<!DOCTYPE svg PUBLIC "-//W3C//DTD SVG 20010904//EN"
 "http://www.w3.org/TR/2001/REC-SVG-20010904/DTD/svg10.dtd">
<svg version="1.0" xmlns="http://www.w3.org/2000/svg"
 width="176.000000pt" height="140.000000pt" viewBox="0 0 176.000000 140.000000"
 preserveAspectRatio="xMidYMid meet">

<g transform="translate(0.000000,140.000000) scale(0.100000,-0.100000)"
fill="#000000" stroke="none">
<path d="M1020 1333 c-37 -14 -74 -49 -91 -87 -17 -37 -19 -71 -19 -375 0
-320 1 -337 21 -378 28 -57 80 -93 137 -93 36 0 49 6 87 41 28 25 49 57 57 80
8 30 18 41 37 45 54 11 91 35 117 74 36 54 44 135 19 191 -17 37 -17 42 -2 75
27 56 22 132 -12 186 -31 48 -63 71 -118 82 -24 6 -33 14 -38 35 -8 36 -47 89
-82 113 -27 17 -82 23 -113 11z m105 -55 c42 -33 55 -76 55 -183 l0 -95 -45 0
c-25 0 -54 6 -65 12 -24 16 -55 0 -55 -27 0 -31 31 -42 64 -22 16 9 49 17 75
17 l45 0 3 78 c3 74 4 77 28 80 33 3 85 -30 110 -70 29 -47 27 -116 -5 -162
l-24 -36 24 -36 c33 -48 32 -54 -10 -54 l-35 0 0 102 c0 79 4 105 16 119 34
38 -13 86 -49 50 -19 -19 -19 -21 -4 -45 13 -19 17 -49 17 -126 l0 -100 -103
0 c-61 0 -107 4 -114 11 -6 6 -21 9 -34 7 -18 -2 -25 -10 -27 -30 -2 -16 1
-28 7 -28 7 0 11 -46 11 -135 0 -85 -4 -135 -10 -135 -6 0 -19 15 -30 33 -18
28 -20 50 -20 195 l0 162 93 0 c53 0 98 -5 104 -11 19 -19 68 -7 71 18 5 32
-32 49 -63 29 -18 -12 -49 -16 -115 -16 l-90 0 0 115 0 115 32 0 c17 0 39 -7
49 -16 38 -34 86 13 50 49 -19 19 -21 19 -45 4 -14 -10 -39 -17 -56 -17 -28 0
-30 3 -30 35 0 103 103 170 175 113z m5 -542 c0 -14 -4 -28 -10 -31 -18 -11
-11 -53 10 -60 42 -13 65 32 34 66 -9 10 -14 25 -11 34 5 12 26 15 107 15
l100 0 0 -29 c0 -65 -83 -137 -147 -127 -31 4 -33 3 -33 -25 0 -73 -58 -143
-114 -137 l-31 3 -3 139 c-3 158 4 176 65 176 28 0 33 -3 33 -24z"/>
<path d="M114 346 c-3 -7 -4 -40 -2 -72 l3 -59 51 -3 c40 -2 54 1 69 18 16 18
17 22 4 35 -13 13 -15 12 -14 -12 0 -26 -3 -28 -47 -31 -47 -3 -48 -3 -48 27
0 29 2 31 36 31 25 0 43 7 55 22 11 11 19 22 19 24 0 8 -33 34 -43 34 -6 0 -2
-6 9 -14 28 -22 7 -50 -41 -54 l-37 -3 4 35 c4 35 -7 49 -18 22z"/>
<path d="M297 353 c-4 -3 -7 -37 -7 -75 l0 -68 58 2 c56 2 56 2 10 5 -45 4
-48 6 -48 33 0 26 4 29 38 33 l37 4 -39 1 c-38 2 -38 3 -34 37 4 34 -1 43 -15
28z"/>
<path d="M450 355 c0 -6 11 -27 25 -47 14 -20 26 -52 26 -70 l1 -33 8 35 c4
19 17 52 30 73 12 21 20 40 17 44 -4 3 -14 -11 -23 -31 -10 -20 -22 -36 -28
-36 -6 0 -21 17 -33 38 -12 20 -22 32 -23 27z"/>
<path d="M615 340 c-37 -40 -12 -131 34 -130 12 1 11 3 -4 12 -28 16 -35 28
-35 65 0 20 8 40 22 53 12 11 17 20 11 20 -5 0 -18 -9 -28 -20z"/>
<path d="M715 335 c38 -37 29 -96 -18 -115 -17 -7 -18 -9 -4 -9 28 -1 57 36
57 74 0 34 -27 75 -50 75 -5 0 2 -11 15 -25z"/>
<path d="M802 283 l2 -78 3 68 c2 37 7 67 11 67 4 0 26 -30 50 -65 56 -87 72
-86 72 4 0 92 -18 103 -22 14 l-3 -68 -44 68 c-60 90 -72 88 -69 -10z"/>
<path d="M990 285 l0 -75 44 0 c50 0 82 21 91 60 6 29 -13 71 -35 78 -12 4
-11 1 3 -15 21 -24 22 -76 1 -97 -8 -9 -31 -16 -50 -16 l-34 0 0 70 c0 40 -4
70 -10 70 -6 0 -10 -32 -10 -75z"/>
<path d="M1370 358 c-2 -9 -3 -109 0 -135 1 -15 2 -15 10 2 4 12 4 48 0 80 -4
33 -8 57 -10 53z"/>
<path d="M1550 342 c-16 -13 -22 -29 -22 -56 0 -35 23 -76 44 -76 4 0 -1 9
-12 20 -27 27 -26 77 2 107 26 27 19 30 -12 5z"/>
<path d="M1628 339 c30 -34 30 -92 0 -113 -19 -13 -20 -16 -5 -16 10 0 24 15
33 34 20 41 10 82 -27 105 l-24 15 23 -25z"/>
<path d="M1324 303 c-30 -42 -36 -53 -27 -53 4 0 18 18 31 40 26 46 24 52 -4
13z"/>
</g>
</svg>
